# Blender 3.4.0
# www.blender.org
mtllib ground.mtl
o Cube
v 11.584403 1.000000 -13.827770
v 11.584403 -1.000000 -13.827770
v 11.584403 1.000000 1.000000
v 11.584403 -1.000000 1.000000
v -0.710443 0.237963 -13.571176
v -1.000000 -1.000000 -13.827770
v -1.000000 1.000000 1.000000
v -1.000000 -1.000000 1.000000
v 5.292202 1.000000 1.000000
v 11.584403 1.000000 -6.413885
v -0.710443 0.237963 -6.670480
v 5.002645 0.237963 -13.571176
v 5.002645 0.237963 -6.670480
v 11.584403 1.000000 -5.981767
v 11.584403 1.000000 -3.277228
v 11.584403 1.000000 -5.531010
v 11.584402 1.000000 -5.080254
v 11.584403 1.000000 -4.629498
v 11.584403 1.000000 -4.178741
v 11.584403 1.000000 -3.727984
v 5.292202 1.000000 -3.277228
v 5.292202 1.000000 -5.981767
v 5.292201 1.000000 -3.727984
v 5.292201 1.000000 -4.178741
v 5.292202 1.000000 -4.629498
v 5.292202 1.000000 -5.080254
v 5.292202 1.000000 -5.531010
v 5.292201 2.482571 -3.727984
v 5.292202 2.482571 -3.277228
v 11.584403 2.482571 -3.277228
v 11.584403 2.482571 -3.727984
v 11.584403 2.120789 -3.727984
v 5.292201 2.120789 -3.727984
v 5.292201 2.120789 -4.178741
v 11.584403 2.120789 -4.178741
v 11.584403 1.789142 -4.178741
v 5.292201 1.789142 -4.178741
v 5.292202 1.789142 -4.629498
v 11.584403 1.789142 -4.629498
v 11.584403 1.585822 -4.629498
v 5.292202 1.585822 -4.629498
v 5.292202 1.585822 -5.080254
v 11.584402 1.585822 -5.080254
v 11.584402 1.383401 -5.080254
v 5.292202 1.383401 -5.080254
v 5.292202 1.383401 -5.531010
v 11.584403 1.383401 -5.531010
v 11.584403 1.214605 -5.531010
v 5.292202 1.214605 -5.531010
v 5.292202 1.214605 -5.981767
v 11.584403 1.214605 -5.981767
v 11.584403 2.829223 1.000000
v 5.292202 2.829223 1.000000
v 5.292202 2.829223 -3.277228
v 11.584403 2.829223 -3.277228
v 11.584403 2.596733 -3.277228
v 11.584403 2.596733 1.000000
v 5.292202 2.596733 1.000000
v 5.292202 2.596733 -3.277228
v -0.975263 2.829223 -3.277228
v -0.975263 2.829223 1.000000
v -0.975263 2.596733 1.000000
v -0.975263 2.596733 -3.277228
v -1.000000 1.000000 -6.413885
v -1.000000 1.000000 -13.827770
v 5.292202 1.000000 -13.827770
v 5.292202 1.000000 -6.413885
vn -0.0000 -0.0000 1.0000
vn -1.0000 -0.0000 -0.0000
vn -0.0000 -1.0000 -0.0000
vn -0.0000 1.0000 -0.0000
vn -0.0000 -0.0000 -1.0000
vn 1.0000 -0.0000 -0.0000
vn 0.9348 0.3552 -0.0000
vn -0.0000 0.3191 0.9477
vn -0.9348 0.3552 -0.0000
vn -0.0000 0.3191 -0.9477
vt 0.625000 0.500000
vt 0.375000 0.500000
vt 0.625000 0.750000
vt 0.375000 0.750000
vt 0.866098 0.507555
vt 0.125000 0.500000
vt 0.375000 0.250000
vt 0.625000 1.000000
vt 0.625000 0.000000
vt 0.875000 0.750000
vt 0.375000 1.000000
vt 0.375000 0.000000
vt 0.125000 0.750000
vt 0.750000 0.750000
vt 0.625000 0.875000
vt 0.625000 0.625000
vt 0.866098 0.617445
vt 0.758902 0.507555
vt 0.758902 0.617445
vt 0.625000 0.664700
vt 0.625000 0.710300
vt 0.625000 0.672300
vt 0.625000 0.679900
vt 0.625000 0.687500
vt 0.625000 0.695100
vt 0.625000 0.702700
vt 0.750000 0.710300
vt 0.750000 0.664700
vt 0.750000 0.702700
vt 0.750000 0.695100
vt 0.750000 0.687500
vt 0.750000 0.679900
vt 0.750000 0.672300
vt 0.750000 0.702700
vt 0.750000 0.710300
vt 0.625000 0.710300
vt 0.625000 0.702700
vt 0.625000 0.702700
vt 0.750000 0.702700
vt 0.750000 0.695100
vt 0.625000 0.695100
vt 0.625000 0.695100
vt 0.750000 0.695100
vt 0.750000 0.687500
vt 0.625000 0.687500
vt 0.625000 0.687500
vt 0.750000 0.687500
vt 0.750000 0.679900
vt 0.625000 0.679900
vt 0.625000 0.679900
vt 0.750000 0.679900
vt 0.750000 0.672300
vt 0.625000 0.672300
vt 0.625000 0.672300
vt 0.750000 0.672300
vt 0.750000 0.664700
vt 0.625000 0.664700
vt 0.625000 0.750000
vt 0.750000 0.750000
vt 0.625000 0.875000
vt 0.750000 0.710300
vt 0.625000 0.710300
vt 0.625000 0.710300
vt 0.625000 0.750000
vt 0.625000 0.875000
vt 0.750000 0.750000
vt 0.750000 0.710300
vt 0.750000 0.710300
vt 0.750000 0.750000
vt 0.625000 0.875000
vt 0.625000 0.875000
vt 0.750000 0.750000
vt 0.750000 0.710300
vt 0.625000 0.125000
vt 0.875000 0.625000
vt 0.625000 0.250000
vt 0.875000 0.500000
vt 0.625000 0.375000
vt 0.750000 0.500000
vt 0.750000 0.625000
s 0
usemtl Material
f 4/4/1 3/3/1 9/15/1 7/8/1 8/11/1
f 8/12/2 7/9/2 64/74/2 65/76/2 6/7/2
f 6/6/3 2/2/3 4/4/3 8/13/3
f 10/16/4 67/80/4 22/28/4 14/20/4
f 6/7/5 65/76/5 66/78/5 1/1/5 2/2/5
f 2/2/6 1/1/6 10/16/6 14/20/6 16/22/6 17/23/6 18/24/6 19/25/6 20/26/6 15/21/6 3/3/6 4/4/6
f 1/1/4 66/79/4 67/80/4 10/16/4
f 12/18/4 5/5/4 11/17/4 13/19/4
f 67/80/4 64/75/4 7/10/4 9/14/4 21/27/4 23/29/4 24/30/4 25/31/4 26/32/4 27/33/4 22/28/4
f 15/21/6 20/26/6 31/37/6 30/36/6
f 19/25/5 24/30/5 34/40/5 35/41/5
f 19/25/6 18/24/6 39/45/6 36/42/6
f 18/24/6 17/23/6 43/49/6 40/46/6
f 16/22/5 27/33/5 46/52/5 47/53/5
f 16/22/6 14/20/6 51/57/6 48/54/6
f 57/64/6 56/63/6 55/62/6 52/58/6
f 29/35/4 30/36/4 31/37/4 28/34/4
f 23/29/2 21/27/2 29/35/2 28/34/2
f 20/26/5 23/29/5 28/34/5 31/37/5
f 21/27/1 15/21/1 30/36/1 29/35/1
f 33/39/4 32/38/4 35/41/4 34/40/4
f 24/30/2 23/29/2 33/39/2 34/40/2
f 20/26/6 19/25/6 35/41/6 32/38/6
f 23/29/1 20/26/1 32/38/1 33/39/1
f 37/43/4 36/42/4 39/45/4 38/44/4
f 24/30/1 19/25/1 36/42/1 37/43/1
f 18/24/5 25/31/5 38/44/5 39/45/5
f 25/31/2 24/30/2 37/43/2 38/44/2
f 41/47/4 40/46/4 43/49/4 42/48/4
f 25/31/1 18/24/1 40/46/1 41/47/1
f 17/23/5 26/32/5 42/48/5 43/49/5
f 26/32/2 25/31/2 41/47/2 42/48/2
f 45/51/4 44/50/4 47/53/4 46/52/4
f 27/33/2 26/32/2 45/51/2 46/52/2
f 17/23/6 16/22/6 47/53/6 44/50/6
f 26/32/1 17/23/1 44/50/1 45/51/1
f 49/55/4 48/54/4 51/57/4 50/56/4
f 27/33/1 16/22/1 48/54/1 49/55/1
f 14/20/5 22/28/5 50/56/5 51/57/5
f 22/28/2 27/33/2 49/55/2 50/56/2
f 55/62/4 54/61/4 53/59/4 52/58/4
f 58/65/1 57/64/1 52/58/1 53/60/1
f 53/59/4 54/61/4 60/68/4 61/69/4
f 56/63/5 59/67/5 54/61/5 55/62/5
f 15/21/5 21/27/5 59/67/5 56/63/5
f 21/27/2 9/14/2 58/66/2 59/67/2
f 9/15/1 3/3/1 57/64/1 58/65/1
f 3/3/6 15/21/6 56/63/6 57/64/6
f 63/73/2 62/72/2 61/69/2 60/68/2
f 58/65/1 53/60/1 61/70/1 62/71/1
f 59/67/3 58/66/3 62/72/3 63/73/3
f 54/61/5 59/67/5 63/73/5 60/68/5
f 11/17/7 5/5/7 65/77/7 64/75/7
f 5/5/8 12/18/8 66/79/8 65/77/8
f 12/18/9 13/19/9 67/80/9 66/79/9
f 13/19/10 11/17/10 64/75/10 67/80/10
