# Blender 3.4.0
# www.blender.org
mtllib groundfix.mtl
o Cube
v 13.595185 1.000000 -17.646605
v 13.595185 -1.000000 -17.646605
v 13.595185 1.000000 1.000000
v 13.595185 -1.000000 1.000000
v -1.000000 1.000000 -17.646605
v -1.000000 -1.000000 -17.646605
v -1.000000 1.000000 1.000000
v -1.000000 -1.000000 1.000000
v -1.000000 -1.000000 -14.790142
v 13.595185 1.000000 -14.790142
v -1.000000 1.000000 -14.790142
v 13.595185 -1.000000 -14.790142
v 27.755554 1.000000 -17.646605
v 27.755554 -1.000000 -17.646605
v 27.755554 -1.000000 -14.790142
v 27.755554 1.000000 -14.790142
v 6.297593 1.000000 1.000000
v 13.595185 1.000000 -6.895071
v -1.000000 1.000000 -6.895071
v 6.297593 1.000000 -14.790142
v 6.297593 1.000000 -6.895071
v 14.767191 4.578785 -6.895071
v 14.767191 4.578785 1.000000
v 6.297593 4.578785 1.000000
v 6.297593 4.578785 -6.895071
v 6.297593 3.526027 -6.895071
v 14.767191 3.526027 -6.895071
v 6.297593 3.526027 1.000000
v 14.767191 3.526027 1.000000
v -1.369661 4.578785 -6.895071
v -1.369661 4.578785 1.000000
v -1.369661 3.526027 -6.895071
v -1.369661 3.526027 1.000000
v 6.297593 2.897450 -6.895071
v -1.000000 2.897450 -6.895071
v -1.000000 1.000000 -7.912381
v -1.000000 1.000000 -12.993141
v -1.000000 1.000000 -8.759173
v -1.000000 1.000000 -9.605968
v -1.000000 1.000000 -10.452761
v -1.000000 1.000000 -11.299554
v -1.000000 1.000000 -12.146347
v 6.297593 1.000000 -12.993141
v 6.297593 1.000000 -7.912381
v 6.297593 1.000000 -12.146347
v 6.297592 1.000000 -11.299554
v 6.297593 1.000000 -10.452761
v 6.297593 1.000000 -9.605968
v 6.297593 1.000000 -8.759173
v -1.000000 2.897450 -7.912381
v 6.297593 2.897450 -7.912381
v -1.000000 2.611779 -8.759173
v -1.000000 2.611779 -7.912381
v 6.297593 2.611779 -7.912381
v 6.297593 2.611779 -8.759173
v 6.297593 2.275287 -8.759173
v -1.000000 2.275287 -8.759173
v -1.000000 2.275287 -9.605968
v 6.297593 2.275287 -9.605968
v 6.297593 2.049043 -9.605968
v -1.000000 2.049043 -9.605968
v -1.000000 2.049043 -10.452761
v 6.297593 2.049043 -10.452761
v 6.297593 1.627394 -10.452761
v -1.000000 1.627394 -10.452761
v -1.000000 1.627394 -11.299554
v 6.297592 1.627394 -11.299554
v 6.297592 1.463657 -11.299554
v -1.000000 1.463657 -11.299554
v -1.000000 1.463657 -12.146347
v 6.297593 1.463657 -12.146347
v 6.297593 1.415973 -12.146347
v -1.000000 1.415973 -12.146347
v -1.000000 1.415973 -12.993141
v 6.297593 1.415973 -12.993141
v 6.297593 2.897450 -7.403726
v -1.000000 2.897450 -7.403726
v -1.000000 2.611779 -8.335777
v 6.297593 2.611779 -8.335777
v -1.000000 2.275287 -9.182570
v 6.297593 2.275287 -9.182570
v -1.000000 2.049043 -10.029364
v 6.297593 2.049043 -10.029364
v -1.000000 1.627394 -10.876158
v 6.297592 1.627394 -10.876158
v -1.000000 1.463657 -11.722950
v 6.297592 1.463657 -11.722950
v -1.000000 1.415973 -12.569744
v 6.297593 1.415973 -12.569744
v -1.000000 4.154236 -6.895071
v 6.297593 4.154236 -6.895071
v 6.297593 4.154236 -7.403726
v -1.000000 4.154236 -7.403726
v -1.000000 3.806569 -7.912381
v 6.297593 3.806569 -7.912381
v 6.297593 3.806569 -7.403726
v -1.000000 3.806569 -7.403726
v -1.000000 3.440625 -8.335777
v -1.000000 3.440625 -7.912381
v 6.297593 3.440625 -7.912381
v 6.297593 3.440625 -8.335777
v 6.297593 3.058177 -8.335777
v 6.297593 3.058177 -8.759173
v -1.000000 3.058177 -8.759173
v -1.000000 3.058177 -8.335777
v 6.297593 2.778767 -8.759173
v -1.000000 2.778767 -8.759173
v -1.000000 2.778767 -9.182570
v 6.297593 2.778767 -9.182570
v 6.297593 2.571453 -9.182570
v 6.297593 2.571453 -9.605968
v -1.000000 2.571453 -9.605968
v -1.000000 2.571453 -9.182570
v 6.297593 2.323147 -9.605968
v -1.000000 2.323147 -9.605968
v -1.000000 2.323147 -10.029364
v 6.297593 2.323147 -10.029364
v 6.297593 1.841843 -10.452761
v -1.000000 1.841843 -10.452761
v -1.000000 1.841843 -10.876158
v 6.297592 1.841843 -10.876158
v 6.297592 1.536913 -11.299554
v -1.000000 1.536913 -11.299554
v -1.000000 1.536913 -11.722950
v 6.297592 1.536913 -11.722950
vn -0.0000 1.0000 -0.0000
vn -0.0000 -0.0000 1.0000
vn -1.0000 -0.0000 -0.0000
vn -0.0000 -1.0000 -0.0000
vn 1.0000 -0.0000 -0.0000
vn -0.0000 -0.0000 -1.0000
vn 0.9071 -0.4209 -0.0000
vt 0.625000 0.500000
vt 0.375000 0.500000
vt 0.625000 0.750000
vt 0.375000 0.750000
vt 0.625000 0.250000
vt 0.875000 0.500000
vt 0.375000 0.250000
vt 0.125000 0.500000
vt 0.875000 0.750000
vt 0.625000 1.000000
vt 0.625000 0.000000
vt 0.375000 1.000000
vt 0.125000 0.750000
vt 0.375000 0.000000
vt 0.125000 0.538297
vt 0.375000 0.211703
vt 0.625000 0.538297
vt 0.625000 0.211703
vt 0.875000 0.538297
vt 0.375000 0.538297
vt 0.625000 0.500000
vt 0.375000 0.500000
vt 0.375000 0.538297
vt 0.625000 0.538297
vt 0.625000 0.875000
vt 0.750000 0.750000
vt 0.625000 0.644149
vt 0.875000 0.644149
vt 0.625000 0.105851
vt 0.750000 0.538297
vt 0.750000 0.644149
vt 0.625000 0.644149
vt 0.625000 0.750000
vt 0.625000 0.875000
vt 0.750000 0.750000
vt 0.750000 0.644149
vt 0.750000 0.644149
vt 0.625000 0.644149
vt 0.750000 0.750000
vt 0.625000 0.875000
vt 0.625000 0.750000
vt 0.750000 0.644149
vt 0.625000 0.875000
vt 0.750000 0.750000
vt 0.750000 0.644149
vt 0.750000 0.750000
vt 0.625000 0.875000
vt 0.750000 0.644149
vt 0.875000 0.644149
vt 0.625000 0.105851
vt 0.625000 0.124717
vt 0.875000 0.625283
vt 0.875000 0.557163
vt 0.625000 0.192837
vt 0.625000 0.136071
vt 0.875000 0.613929
vt 0.625000 0.147424
vt 0.875000 0.602576
vt 0.875000 0.591223
vt 0.625000 0.158777
vt 0.625000 0.170130
vt 0.875000 0.579870
vt 0.875000 0.568517
vt 0.625000 0.181483
vt 0.750000 0.557163
vt 0.750000 0.625283
vt 0.750000 0.568517
vt 0.750000 0.579870
vt 0.750000 0.591223
vt 0.750000 0.602576
vt 0.750000 0.613929
vt 0.875000 0.625283
vt 0.625000 0.124717
vt 0.750000 0.625283
vt 0.875000 0.613929
vt 0.625000 0.136071
vt 0.625000 0.124717
vt 0.875000 0.625283
vt 0.750000 0.625283
vt 0.750000 0.613929
vt 0.750000 0.613929
vt 0.625000 0.136071
vt 0.875000 0.613929
vt 0.875000 0.602576
vt 0.625000 0.147424
vt 0.750000 0.602576
vt 0.750000 0.602576
vt 0.875000 0.602576
vt 0.625000 0.147424
vt 0.875000 0.591223
vt 0.625000 0.158777
vt 0.750000 0.591223
vt 0.750000 0.591223
vt 0.875000 0.591223
vt 0.625000 0.158777
vt 0.875000 0.579870
vt 0.625000 0.170130
vt 0.750000 0.579870
vt 0.750000 0.579870
vt 0.625000 0.170130
vt 0.875000 0.579870
vt 0.875000 0.568517
vt 0.625000 0.181483
vt 0.750000 0.568517
vt 0.750000 0.568517
vt 0.625000 0.181483
vt 0.875000 0.568517
vt 0.875000 0.557163
vt 0.625000 0.192837
vt 0.750000 0.557163
vt 0.750000 0.634716
vt 0.875000 0.634716
vt 0.625000 0.115284
vt 0.875000 0.619606
vt 0.625000 0.130394
vt 0.750000 0.619606
vt 0.875000 0.608253
vt 0.625000 0.141747
vt 0.750000 0.608253
vt 0.875000 0.596900
vt 0.625000 0.153100
vt 0.750000 0.596900
vt 0.875000 0.585546
vt 0.625000 0.164454
vt 0.750000 0.585546
vt 0.625000 0.175807
vt 0.875000 0.574193
vt 0.750000 0.574193
vt 0.625000 0.187160
vt 0.875000 0.562840
vt 0.750000 0.562840
vt 0.875000 0.644149
vt 0.625000 0.105851
vt 0.750000 0.644149
vt 0.750000 0.634716
vt 0.875000 0.634716
vt 0.625000 0.115284
vt 0.875000 0.625283
vt 0.625000 0.124717
vt 0.750000 0.625283
vt 0.750000 0.634716
vt 0.875000 0.634716
vt 0.625000 0.115284
vt 0.625000 0.130394
vt 0.875000 0.619606
vt 0.625000 0.124717
vt 0.875000 0.625283
vt 0.750000 0.625283
vt 0.750000 0.619606
vt 0.750000 0.619606
vt 0.750000 0.613929
vt 0.875000 0.613929
vt 0.625000 0.136071
vt 0.875000 0.619606
vt 0.625000 0.130394
vt 0.750000 0.613929
vt 0.625000 0.136071
vt 0.875000 0.613929
vt 0.875000 0.608253
vt 0.625000 0.141747
vt 0.750000 0.608253
vt 0.750000 0.608253
vt 0.750000 0.602576
vt 0.875000 0.602576
vt 0.625000 0.147424
vt 0.875000 0.608253
vt 0.625000 0.141747
vt 0.750000 0.602576
vt 0.875000 0.602576
vt 0.625000 0.147424
vt 0.875000 0.596900
vt 0.625000 0.153100
vt 0.750000 0.596900
vt 0.750000 0.591223
vt 0.875000 0.591223
vt 0.625000 0.158777
vt 0.875000 0.585546
vt 0.625000 0.164454
vt 0.750000 0.585546
vt 0.750000 0.579870
vt 0.625000 0.170130
vt 0.875000 0.579870
vt 0.625000 0.175807
vt 0.875000 0.574193
vt 0.750000 0.574193
s 0
usemtl Material
f 21/31/1 19/28/1 7/9/1 17/26/1
f 4/4/2 3/3/2 17/25/2 7/10/2 8/12/2
f 9/16/3 11/18/3 5/5/3 6/7/3
f 9/15/4 12/20/4 4/4/4 8/13/4
f 12/20/5 10/17/5 18/27/5 3/3/5 4/4/5
f 6/7/6 5/5/6 1/1/6 2/2/6
f 10/17/2 12/20/2 15/23/2 16/24/2
f 6/8/4 2/2/4 12/20/4 9/15/4
f 21/31/5 44/66/5 51/74/5 76/111/5 34/48/5
f 1/1/1 5/6/1 11/19/1 20/30/1 10/17/1
f 14/22/5 13/21/5 16/24/5 15/23/5
f 2/2/6 1/1/6 13/21/6 14/22/6
f 1/1/1 10/17/1 16/24/1 13/21/1
f 12/20/4 2/2/4 14/22/4 15/23/4
f 27/38/6 26/37/6 25/36/6 22/32/6
f 76/111/6 77/112/6 93/136/6 92/135/6
f 10/17/1 20/30/1 43/65/1 45/67/1 46/68/1 47/69/1 48/70/1 49/71/1 44/66/1 21/31/1 18/27/1
f 22/32/1 25/36/1 24/35/1 23/33/1
f 26/37/4 28/39/4 33/46/4 32/45/4
f 28/40/2 29/41/2 23/33/2 24/34/2
f 29/41/5 27/38/5 22/32/5 23/33/5
f 3/3/7 18/27/7 27/38/7 29/41/7
f 17/25/2 3/3/2 29/41/2 28/40/2
f 21/31/3 17/26/3 28/39/3 26/37/3
f 18/27/6 21/31/6 26/37/6 27/38/6
f 32/45/3 33/46/3 31/44/3 30/42/3
f 28/40/2 24/34/2 31/43/2 33/47/2
f 25/36/6 26/37/6 32/45/6 30/42/6
f 24/35/1 25/36/1 30/42/1 31/44/1
f 8/14/3 7/11/3 19/29/3 36/51/3 38/55/3 39/57/3 40/60/3 41/61/3 42/64/3 37/54/3 11/18/3 9/16/3
f 44/66/5 49/71/5 55/80/5 79/116/5 54/79/5
f 39/57/3 38/55/3 57/82/3 80/118/3 58/85/3
f 47/69/6 40/59/6 62/90/6 63/92/6
f 47/69/5 46/68/5 67/98/5 85/125/5 64/93/5
f 45/67/6 42/63/6 70/102/6 71/104/6
f 42/63/2 45/67/2 72/105/2 73/107/2
f 20/30/1 11/19/1 37/53/1 43/65/1
f 19/28/2 21/31/2 34/48/2 35/49/2
f 44/66/6 36/52/6 50/72/6 51/74/6
f 36/51/3 19/29/3 35/50/3 77/113/3 50/73/3
f 79/116/5 55/80/5 103/151/5 102/150/5
f 38/55/3 36/51/3 53/77/3 78/115/3 52/76/3
f 49/71/6 38/56/6 52/75/6 55/80/6
f 36/52/2 44/66/2 54/79/2 53/78/2
f 59/86/6 58/84/6 112/164/6 111/163/6
f 49/71/5 48/70/5 59/86/5 81/119/5 56/81/5
f 38/56/2 49/71/2 56/81/2 57/83/2
f 48/70/6 39/58/6 58/84/6 59/86/6
f 82/120/1 83/122/1 63/92/1 62/90/1
f 40/60/3 39/57/3 61/89/3 82/121/3 62/91/3
f 48/70/5 47/69/5 63/92/5 83/122/5 60/87/5
f 39/58/2 48/70/2 60/87/2 61/88/2
f 84/123/1 85/125/1 67/98/1 66/96/1
f 40/59/2 47/69/2 64/93/2 65/94/2
f 46/68/6 41/62/6 66/96/6 67/98/6
f 41/61/3 40/60/3 65/95/3 84/124/3 66/97/3
f 86/127/1 87/128/1 71/104/1 70/102/1
f 42/64/3 41/61/3 69/100/3 86/126/3 70/103/3
f 46/68/5 45/67/5 71/104/5 87/128/5 68/99/5
f 41/62/2 46/68/2 68/99/2 69/101/2
f 88/130/1 89/131/1 75/110/1 74/108/1
f 43/65/6 37/53/6 74/108/6 75/110/6
f 37/54/3 42/64/3 73/106/3 88/129/3 74/109/3
f 45/67/5 43/65/5 75/110/5 89/131/5 72/105/5
f 73/107/1 72/105/1 89/131/1 88/130/1
f 86/126/3 69/100/3 123/181/3 124/183/3
f 65/94/2 64/93/2 118/174/2 119/175/2
f 60/87/5 83/122/5 117/173/5 114/168/5
f 81/119/6 80/117/6 108/159/6 109/161/6
f 78/115/3 53/77/3 99/146/3 98/144/3
f 77/112/2 76/111/2 96/141/2 97/142/2
f 92/135/1 93/136/1 90/132/1 91/134/1
f 35/49/2 34/48/2 91/134/2 90/132/2
f 77/113/3 35/50/3 90/133/3 93/137/3
f 34/48/5 76/111/5 92/135/5 91/134/5
f 95/140/1 94/138/1 97/142/1 96/141/1
f 51/74/6 50/72/6 94/138/6 95/140/6
f 50/73/3 77/113/3 97/143/3 94/139/3
f 76/111/5 51/74/5 95/140/5 96/141/5
f 99/147/1 100/148/1 101/149/1 98/145/1
f 54/79/5 79/116/5 101/149/5 100/148/5
f 53/78/2 54/79/2 100/148/2 99/147/2
f 79/116/6 78/114/6 98/145/6 101/149/6
f 105/154/1 102/150/1 103/151/1 104/152/1
f 55/80/6 52/75/6 104/152/6 103/151/6
f 78/114/2 79/116/2 102/150/2 105/154/2
f 52/76/3 78/115/3 105/155/3 104/153/3
f 107/158/1 106/156/1 109/161/1 108/159/1
f 80/118/3 57/82/3 107/157/3 108/160/3
f 56/81/5 81/119/5 109/161/5 106/156/5
f 57/83/2 56/81/2 106/156/2 107/158/2
f 113/166/1 110/162/1 111/163/1 112/164/1
f 80/117/2 81/119/2 110/162/2 113/166/2
f 81/119/5 59/86/5 111/163/5 110/162/5
f 58/85/3 80/118/3 113/167/3 112/165/3
f 115/169/1 114/168/1 117/173/1 116/171/1
f 61/88/2 60/87/2 114/168/2 115/169/2
f 83/122/6 82/120/6 116/171/6 117/173/6
f 82/121/3 61/89/3 115/170/3 116/172/3
f 119/175/1 118/174/1 121/179/1 120/177/1
f 64/93/5 85/125/5 121/179/5 118/174/5
f 85/125/6 84/123/6 120/177/6 121/179/6
f 84/124/3 65/95/3 119/176/3 120/178/3
f 123/182/1 122/180/1 125/185/1 124/184/1
f 69/101/2 68/99/2 122/180/2 123/182/2
f 87/128/6 86/127/6 124/184/6 125/185/6
f 68/99/5 87/128/5 125/185/5 122/180/5
